<?xml version="1.0" encoding="iso-8859-1"?>
<!-- Generator: Adobe Illustrator 18.1.1, SVG Export Plug-In . SVG Version: 6.00 Build 0)  -->
<svg version="1.1" id="Capa_1" xmlns="http://www.w3.org/2000/svg" xmlns:xlink="http://www.w3.org/1999/xlink" x="0px" y="0px"
	 viewBox="0 0 15.989 15.989" style="enable-background:new 0 0 15.989 15.989;" xml:space="preserve">
<g>
	<g>
		<path style="fill:#010002;" d="M3.882,9.965l-0.229,1.029h10.72c0.275,0,0.5,0.225,0.5,0.5s-0.225,0.5-0.5,0.5H3.029
			c-0.152,0-0.295-0.068-0.39-0.188c-0.095-0.117-0.131-0.272-0.098-0.42L3.05,9.095L3.029,8.994L2.16,4.65L1.539,1.994H0.5
			c-0.277,0-0.5-0.224-0.5-0.5s0.224-0.5,0.5-0.5h1.435c0.233,0,0.434,0.16,0.487,0.386L2.81,3.038l0.219-0.044h12
			c0.554,0,1.172,0.375,0.889,1.268l-1.623,4.982c-0.266,0.641-0.6,0.75-1.15,0.75H4.029L3.882,9.965z M4.029,12.994
			c-0.552,0-1,0.448-1,1s0.448,1,1,1s1-0.448,1-1S4.581,12.994,4.029,12.994z M13.029,12.994c-0.553,0-1,0.448-1,1s0.447,1,1,1
			c0.551,0,1-0.448,1-1S13.58,12.994,13.029,12.994z"/>
	</g>
</g>
<g>
</g>
<g>
</g>
<g>
</g>
<g>
</g>
<g>
</g>
<g>
</g>
<g>
</g>
<g>
</g>
<g>
</g>
<g>
</g>
<g>
</g>
<g>
</g>
<g>
</g>
<g>
</g>
<g>
</g>
</svg>
