<?xml version="1.0" encoding="iso-8859-1"?>
<!-- Generator: Adobe Illustrator 18.1.1, SVG Export Plug-In . SVG Version: 6.00 Build 0)  -->
<svg version="1.1" id="Capa_1" xmlns="http://www.w3.org/2000/svg" xmlns:xlink="http://www.w3.org/1999/xlink" x="0px" y="0px"
	 viewBox="0 0 474.506 474.506" style="enable-background:new 0 0 474.506 474.506;" xml:space="preserve">
<g>
	<path style="fill:#010002;" d="M237.31,97.974c4.609,0,8.267-1.699,10.974-5.097c2.707-3.398,4.056-8.234,4.056-14.501
		c0-6.243-1.357-11.071-4.056-14.485c-2.707-3.414-6.365-5.113-10.974-5.113s-8.283,1.699-11.03,5.097
		c-2.747,3.398-4.113,8.234-4.113,14.501s1.374,11.104,4.113,14.501C229.027,96.275,232.709,97.974,237.31,97.974z"/>
	<path style="fill:#010002;" d="M214.241,178.056h1.366c3.56,0,5.56-2.747,4.479-6.137l-3.089-9.632
		c-1.089-3.39-2.878-3.398-3.991-0.016l-3.186,9.665C208.697,175.317,210.68,178.056,214.241,178.056z"/>
	<path style="fill:#010002;" d="M77.047,217.732h320.412V31.718H77.047V217.732z M336.901,148.355c0,2.723-2.886,4.926-6.446,4.926
		h-16.566c-3.56,0-6.446,2.65-6.446,5.909s2.886,5.909,6.446,5.909h14.152c3.56,0,6.446,2.162,6.446,4.837
		c0,2.666-2.886,4.836-6.446,4.836h-14.152c-3.56,0-6.446,2.886-6.446,6.446v1.423c0,3.56,2.886,6.446,6.446,6.446h17.924
		c3.56,0,6.446,2.243,6.446,5.007s-2.886,5.007-6.446,5.007h-29.287c-3.56,0-6.446-2.886-6.446-6.446v-42.773
		c0-3.56,2.886-6.446,6.446-6.446h27.93C334.015,143.429,336.901,145.632,336.901,148.355z M273.108,57.063
		c0-3.56,2.886-6.446,6.446-6.446h20.175c3.804,0.073,6.73,0.553,8.787,1.439c2.048,0.878,3.788,2.178,5.21,3.894
		c1.179,1.406,2.113,2.967,2.796,4.682c0.691,1.715,1.032,3.666,1.032,5.853c0,2.642-0.667,5.243-2,7.795
		c-0.691,1.317-1.609,2.439-2.764,3.357c-1.894,1.512-2.292,2.593-0.732,3.796c0.992,0.764,1.772,1.65,2.341,2.658
		c1.073,1.902,1.601,4.804,1.601,8.706v3.739c0,2.544,0.098,4.268,0.309,5.17c0.146,0.699,0.39,1.301,0.732,1.821
		c0.602,0.91,1.414,1.666,1.414,2.048s-2.878,0.699-6.422,0.699s-6.609-0.658-6.828-1.479c-0.146-0.577-0.268-1.073-0.35-1.504
		c-0.301-1.561-0.463-3.162-0.488-4.796l-0.073-5.17c-0.049-3.552-0.658-5.918-1.845-7.096c-1.179-1.187-3.39-1.772-6.625-1.772
		c0,0-2.544,0-5.682,0s-5.682,2.886-5.682,6.446v8.933c0,3.56-2.544,6.446-5.682,6.446s-5.682-2.886-5.682-6.446V57.063H273.108z
		 M281.48,189.079c3.56,0,6.446,2.243,6.446,5.007s-2.886,5.007-6.446,5.007h-26.532c-3.56,0-6.446-2.886-6.446-6.446v-42.773
		c0-3.56,2.601-6.446,5.812-6.446c3.211,0,5.812,2.886,5.812,6.446v32.766c0,3.56,2.886,6.446,6.446,6.446h14.908V189.079z
		 M219.069,55.421c4.202-4.333,10.283-6.495,18.241-6.495c7.958,0,14.038,2.162,18.241,6.495c5.617,5.113,8.421,12.762,8.421,22.963
		c0,9.998-2.804,17.647-8.421,22.963c-4.202,4.333-10.283,6.495-18.241,6.495c-7.958,0-14.038-2.162-18.241-6.495
		c-5.641-5.316-8.462-12.965-8.462-22.963C210.615,68.182,213.436,60.525,219.069,55.421z M215.013,143.429h0.268
		c3.56,0,7.405,2.723,8.592,6.072l15.396,43.512c1.187,3.357-0.675,6.072-4.154,6.072c-3.487,0-7.129-2.561-8.145-5.723
		c-1.016-3.162-4.723-5.723-8.283-5.723h-7.608c-3.56,0-7.291,2.561-8.332,5.723c-1.04,3.162-4.609,5.723-7.966,5.723
		s-5.113-2.715-3.918-6.072l15.534-43.52C207.592,146.144,211.453,143.429,215.013,143.429z M165.453,57.144
		c0-3.56,2.886-6.446,6.446-6.446h26.8c3.56,0,6.446,2.187,6.446,4.893s-2.886,4.893-6.446,4.893h-15.241
		c-3.56,0-6.446,2.869-6.446,6.397c0,3.536,2.886,6.397,6.446,6.397h11.77c3.56,0,6.446,2.162,6.446,4.837
		c0,2.666-2.886,4.837-6.446,4.837h-11.77c-3.56,0-6.446,2.886-6.446,6.446v10.445c0,3.56-2.585,6.446-5.779,6.446
		c-3.195,0-5.779-2.886-5.779-6.446V57.144z M170.842,179.414c-1.626-0.984-4.202-1.853-7.73-2.609l-6.023-1.325
		c-5.926-1.309-9.99-2.731-12.209-4.268c-3.747-2.569-5.625-6.584-5.625-12.047c0-4.983,1.837-9.128,5.503-12.42
		c3.666-3.3,9.063-4.95,16.176-4.95c5.942,0,10.998,1.553,15.192,4.666c2.552,1.886,4.365,4.3,5.438,7.226
		c1.227,3.341-1.341,6.308-4.43,6.308s-5.536-2.122-6.812-4.211c-0.748-1.227-1.837-2.203-3.268-2.926
		c-1.861-0.935-4.17-1.398-6.926-1.398c-3.073,0-5.519,0.602-7.356,1.813c-1.829,1.211-2.747,2.894-2.747,5.056
		c0,1.992,0.902,3.471,2.707,4.454c1.162,0.658,3.625,1.422,7.397,2.3l9.771,2.3c4.284,1.008,7.486,2.357,9.624,4.04
		c3.316,2.617,4.975,6.405,4.975,11.364c0,5.088-1.967,9.307-5.901,12.672c-3.934,3.365-9.486,5.04-16.655,5.04
		c-7.332,0-13.095-1.658-17.289-4.967c-2.528-1.992-4.292-4.43-5.3-7.324c-1.171-3.365,1.488-6.332,4.552-6.332
		s5.69,1.39,6.235,3.008c0.374,1.097,0.853,2,1.439,2.699c1.926,2.292,5.227,3.438,9.909,3.438c2.804,0,5.072-0.301,6.82-0.91
		c3.316-1.154,4.975-3.308,4.975-6.454C173.273,181.844,172.46,180.422,170.842,179.414z"/>
	<path style="fill:#010002;" d="M290.739,75.246h6.259c2.487,0,4.349-0.301,5.592-0.91c2.195-1.057,3.3-3.146,3.3-6.267
		c0-3.373-1.065-5.641-3.195-6.795c-1.195-0.658-2.991-0.984-5.381-0.984c0,0-2.878,0-6.422,0s-6.422,2.886-6.422,6.446V68.8
		C284.48,72.361,287.284,75.246,290.739,75.246z"/>
	<path style="fill:#010002;" d="M25.008,21.955V452.55c0,12.128,9.827,21.955,21.955,21.955s21.955-9.827,21.955-21.955V217.732
		V31.718v-9.762C68.918,9.827,59.091,0,46.963,0S25.008,9.827,25.008,21.955z"/>
	<path style="fill:#010002;" d="M449.498,452.55V21.955C449.498,9.827,439.671,0,427.543,0s-21.955,9.827-21.955,21.955v9.762
		V217.74v234.81c0,12.128,9.827,21.955,21.955,21.955S449.498,464.678,449.498,452.55z"/>
</g>
<g>
</g>
<g>
</g>
<g>
</g>
<g>
</g>
<g>
</g>
<g>
</g>
<g>
</g>
<g>
</g>
<g>
</g>
<g>
</g>
<g>
</g>
<g>
</g>
<g>
</g>
<g>
</g>
<g>
</g>
</svg>
