<?xml version="1.0" encoding="iso-8859-1"?>
<!-- Generator: Adobe Illustrator 16.0.0, SVG Export Plug-In . SVG Version: 6.00 Build 0)  -->
<!DOCTYPE svg PUBLIC "-//W3C//DTD SVG 1.1//EN" "http://www.w3.org/Graphics/SVG/1.1/DTD/svg11.dtd">
<svg version="1.1" id="Capa_1" xmlns="http://www.w3.org/2000/svg" xmlns:xlink="http://www.w3.org/1999/xlink" x="0px" y="0px"
	 width="302.4px" height="302.4px" viewBox="0 0 302.4 302.4" style="enable-background:new 0 0 302.4 302.4;" xml:space="preserve"
	>
<g>
	<g>
		<path d="M112.498,180.9H17.097c-2.987,0-5.4,2.409-5.4,5.399v76.497c0,2.984,2.413,5.399,5.4,5.399h42.298V297
			c0,2.985,2.413,5.4,5.4,5.4c2.984,0,5.4-2.415,5.4-5.4v-28.804h42.303c2.987,0,5.4-2.415,5.4-5.399V186.3
			C117.898,183.31,115.485,180.9,112.498,180.9z M107.098,257.396H22.497V191.7h84.602V257.396z"/>
		<path d="M63.635,233.022c-2.798,0-5.342-0.906-7.151-1.893l-1.29,5.036c1.635,0.954,4.433,1.729,7.322,1.856v4.092h4.216v-4.388
			c4.952-0.864,7.663-4.14,7.663-7.968c0-3.871-2.067-6.238-7.193-8.053c-3.66-1.377-5.168-2.283-5.168-3.707
			c0-1.208,0.901-2.416,3.705-2.416c3.101,0,5.083,0.997,6.199,1.461l1.25-4.852c-1.421-0.695-3.359-1.286-6.244-1.429v-3.781
			h-4.221v4.082c-4.606,0.907-7.28,3.881-7.28,7.667c0,4.166,3.143,6.328,7.749,7.879c3.186,1.076,4.562,2.109,4.562,3.738
			C67.769,232.084,66.089,233.022,63.635,233.022z"/>
		<g>
			<path d="M276.297,109.793H25.196c-2.987,0-5.4,2.415-5.4,5.4v53.82c0,2.985,2.413,5.4,5.4,5.4h49.199c2.987,0,5.4-2.415,5.4-5.4
				v-21.502h74.554v37.011h-24.754c-2.987,0-5.4,2.41-5.4,5.4v48.59c0,0.638,0.161,1.239,0.367,1.804
				c-0.206,0.574-0.367,1.176-0.367,1.813c0,2.99,2.413,5.4,5.4,5.4h60.302c2.984,0,5.4-2.41,5.4-5.4v-67.727h58.498v67.711
				c0,2.984,2.41,5.4,5.399,5.4h17.103c2.984,0,5.399-2.416,5.399-5.4V115.193C281.696,112.208,279.281,109.793,276.297,109.793z"/>
			<path d="M298.767,98.813c-0.016-0.355-0.132-0.701-0.216-1.057c-0.085-0.351-0.138-0.707-0.285-1.026
				c-0.021-0.055-0.021-0.113-0.042-0.174l-37.8-74.698c-0.122-0.237-0.338-0.382-0.485-0.593c-0.211-0.33-0.422-0.649-0.723-0.918
				c-0.253-0.237-0.564-0.388-0.828-0.567c-0.311-0.185-0.574-0.379-0.907-0.503c-0.369-0.14-0.77-0.177-1.165-0.232
				c-0.248-0.037-0.47-0.145-0.728-0.145h-11.702V5.4c0-2.985-2.415-5.4-5.399-5.4h-35.101c-2.995,0-5.399,2.415-5.399,5.4v13.5
				H45.895c-0.282,0-0.53,0.118-0.799,0.163c-0.38,0.058-0.746,0.084-1.102,0.222c-0.335,0.121-0.614,0.332-0.917,0.522
				c-0.288,0.179-0.583,0.335-0.831,0.562c-0.292,0.271-0.493,0.593-0.714,0.923c-0.15,0.216-0.356,0.369-0.475,0.617L4.158,96.602
				c-0.021,0.048-0.016,0.103-0.037,0.145c-0.147,0.33-0.195,0.68-0.277,1.031s-0.206,0.702-0.216,1.065
				c0,0.053-0.031,0.098-0.031,0.14c0,0.264,0.113,0.49,0.15,0.744c0.061,0.401,0.092,0.796,0.237,1.173
				c0.126,0.319,0.319,0.577,0.498,0.87c0.182,0.301,0.34,0.604,0.588,0.862c0.264,0.293,0.593,0.488,0.912,0.704
				c0.217,0.15,0.38,0.361,0.628,0.485c0.042,0.021,0.092,0.01,0.14,0.031c0.68,0.313,1.421,0.514,2.215,0.52
				c0.011,0,0.021,0.005,0.032,0.005c0,0,0,0,0.005,0l0,0h284.401l0,0c0,0,0,0,0.006,0c0.633,0,1.271-0.152,1.882-0.385
				c0.116-0.042,0.222-0.068,0.338-0.113c0.068-0.031,0.137-0.042,0.222-0.079c0.237-0.119,0.38-0.33,0.58-0.478
				c0.337-0.227,0.653-0.424,0.917-0.722c0.232-0.253,0.391-0.545,0.564-0.825c0.19-0.309,0.385-0.578,0.512-0.92
				c0.137-0.355,0.174-0.738,0.232-1.12c0.031-0.262,0.147-0.488,0.147-0.757C298.798,98.927,298.767,98.885,298.767,98.813z
				 M189.896,51.295h-77.398c-2.987,0-5.4-2.415-5.4-5.4c0-2.984,2.413-5.399,5.4-5.399h77.398c2.984,0,5.4,2.415,5.4,5.399
				C195.297,48.88,192.881,51.295,189.896,51.295z"/>
		</g>
	</g>
</g>
<g>
</g>
<g>
</g>
<g>
</g>
<g>
</g>
<g>
</g>
<g>
</g>
<g>
</g>
<g>
</g>
<g>
</g>
<g>
</g>
<g>
</g>
<g>
</g>
<g>
</g>
<g>
</g>
<g>
</g>
</svg>
