<?xml version="1.0" encoding="iso-8859-1"?>
<!-- Generator: Adobe Illustrator 16.0.0, SVG Export Plug-In . SVG Version: 6.00 Build 0)  -->
<!DOCTYPE svg PUBLIC "-//W3C//DTD SVG 1.1//EN" "http://www.w3.org/Graphics/SVG/1.1/DTD/svg11.dtd">
<svg version="1.1" id="Capa_1" xmlns="http://www.w3.org/2000/svg" xmlns:xlink="http://www.w3.org/1999/xlink" x="0px" y="0px"
	 width="112.003px" height="112.003px" viewBox="0 0 112.003 112.003" style="enable-background:new 0 0 112.003 112.003;"
	 xml:space="preserve">
<g>
	<path d="M67.271,52c2.535-4.904,4-10.462,4-16.366C71.271,15.96,55.315,0,35.636,0C15.961-0.005,0.001,15.955,0.001,35.635
		c0,19.679,15.96,35.641,35.635,35.641c5.908,0,11.461-1.459,16.361-4.004L71.271,86.54h10.188c0,0.009,0,10.188,0,10.188h10.179
		v10.183l5.092,5.092h15.271V96.729L67.271,52z M25.664,37.333c-6.435,0-11.662-5.222-11.662-11.667
		C14.001,19.222,19.229,14,25.664,14c6.449,0,11.671,5.222,11.671,11.667C37.334,32.111,32.112,37.333,25.664,37.333z"/>
</g>
<g>
</g>
<g>
</g>
<g>
</g>
<g>
</g>
<g>
</g>
<g>
</g>
<g>
</g>
<g>
</g>
<g>
</g>
<g>
</g>
<g>
</g>
<g>
</g>
<g>
</g>
<g>
</g>
<g>
</g>
</svg>
