<?xml version="1.0" encoding="iso-8859-1"?>
<!-- Generator: Adobe Illustrator 18.1.1, SVG Export Plug-In . SVG Version: 6.00 Build 0)  -->
<svg version="1.1" id="Capa_1" xmlns="http://www.w3.org/2000/svg" xmlns:xlink="http://www.w3.org/1999/xlink" x="0px" y="0px"
	 viewBox="0 0 487.812 487.812" style="enable-background:new 0 0 487.812 487.812;" xml:space="preserve">
<g>
	<path style="fill:#010002;" d="M474.593,189.798L261.868,32.933c-11.526-8.502-27.263-8.446-38.757,0.122L13.061,189.92
		c-14.388,10.746-17.338,31.116-6.6,45.512c10.754,14.396,31.116,17.338,45.512,6.6L71.79,227.23v201.475
		c0,17.956,14.558,32.514,32.514,32.514h276.542c17.956,0,32.514-14.558,32.514-32.514V225.45l22.638,16.696
		c5.812,4.276,12.567,6.34,19.273,6.34c9.974,0,19.817-4.568,26.198-13.217C492.118,220.817,489.046,200.463,474.593,189.798z
		 M348.332,184.067v212.115H136.818V184.067c0-1.723-0.252-3.382-0.504-5.032l106.379-79.441l106.257,78.359
		C348.568,179.938,348.332,181.97,348.332,184.067z"/>
	<path style="fill:#010002;" d="M228.509,136.085l-7.421,7.966c-8.023,8.624-77.937,85.805-60.639,140.38
		c6.991,22.045,26.353,36.546,57.55,43.106c7.495,1.577,14.688,2.666,21.606,3.349c0.415-4.032,0.699-8.088,0.943-12.136
		c0.244-4.064,0.374-8.137,0.455-12.217c0.569-29.052-2.593-58.404-6.552-87.431c-0.244-1.805,0.033-3.243,0.504-4.519
		c8.852,30.401,15.761,61.468,18.257,92.706c0.325,4.056,0.447,8.112,0.618,12.177c0.171,4.081,0.374,8.161,0.382,12.242
		c0.008,3.674-0.187,7.348-0.325,11.014c-0.366,9.673-1.049,19.346-2.504,28.995c-2.081,13.794,12.713,12.274,15.461-1.634
		c2.593-13.12,3.772-26.312,3.934-39.529c27.279-3.755,46.52-17.371,53.608-38.83c13.64-41.301-20.549-99.851-87.114-149.176
		L228.509,136.085z"/>
</g>
<g>
</g>
<g>
</g>
<g>
</g>
<g>
</g>
<g>
</g>
<g>
</g>
<g>
</g>
<g>
</g>
<g>
</g>
<g>
</g>
<g>
</g>
<g>
</g>
<g>
</g>
<g>
</g>
<g>
</g>
</svg>
