<?xml version="1.0" encoding="iso-8859-1"?>
<!-- Generator: Adobe Illustrator 18.1.1, SVG Export Plug-In . SVG Version: 6.00 Build 0)  -->
<svg version="1.1" id="Capa_1" xmlns="http://www.w3.org/2000/svg" xmlns:xlink="http://www.w3.org/1999/xlink" x="0px" y="0px"
	 viewBox="0 0 47 47" style="enable-background:new 0 0 47 47;" xml:space="preserve">
<g>
	<g>
		<path style="fill:#030104;" d="M25,23.858v5.908c1-0.18,1.521-0.544,2.015-1.093s0.697-1.188,0.697-1.915
			c0-0.783-0.173-1.388-0.654-1.814C26.577,24.517,26,24.154,25,23.858z"/>
		<path style="fill:#030104;" d="M20.707,17.248c0,0.71,0.144,1.248,0.54,1.611C21.642,19.224,22,19.555,23,19.852v-5.167
			c-1,0.225-1.291,0.521-1.713,0.891C20.864,15.944,20.707,16.501,20.707,17.248z"/>
		<path style="fill:#030104;" d="M47,12c0-6.627-5.373-12-12-12H12C5.373,0,0,5.373,0,12v23c0,6.627,5.373,12,12,12h23
			c6.627,0,12-5.373,12-12V12z M30.278,29.193c-0.481,0.895-1.1,1.625-2.035,2.192C27.307,31.952,26,32.289,25,32.397v3.358
			c0,0.531-0.141,0.918-0.245,1.16c-0.104,0.243-0.375,0.364-0.726,0.364c-0.323,0-0.627-0.099-0.758-0.297
			C23.141,36.786,23,36.48,23,36.066v-3.643c-1-0.116-1.918-0.364-2.705-0.741c-0.787-0.378-1.416-0.848-1.942-1.41
			c-0.526-0.562-0.901-1.146-1.153-1.754c-0.252-0.606-0.371-1.202-0.371-1.787c0-0.432,0.172-0.82,0.509-1.167
			c0.337-0.346,0.759-0.52,1.263-0.52c0.404,0,0.747,0.095,1.026,0.283c0.279,0.189,0.473,0.454,0.581,0.796
			c0.243,0.737,0.454,1.302,0.635,1.693c0.18,0.392,0.397,0.749,0.762,1.072C21.968,29.214,23,29.461,23,29.632v-6.273
			c-1-0.332-2.158-0.703-2.968-1.112s-1.439-0.992-1.942-1.747c-0.504-0.756-0.742-1.727-0.742-2.914
			c0-1.547,0.445-2.814,1.43-3.804S21,12.216,23,12.054v-1.43c0-0.755,0.427-1.133,0.993-1.133c0.575,0,1.007,0.368,1.007,1.105
			v1.457c1,0.1,1.698,0.297,2.386,0.594s1.244,0.747,1.756,1.35c0.404,0.458,0.695,0.931,0.915,1.416
			c0.22,0.485,0.319,0.931,0.319,1.336c0,0.449-0.17,0.838-0.498,1.167c-0.328,0.328-0.729,0.492-1.196,0.492
			c-0.882,0-1.365-0.477-1.625-1.431C26.76,15.854,26,15.107,25,14.738v5.612c1,0.306,1.914,0.585,2.575,0.836
			c0.661,0.252,1.208,0.616,1.73,1.093c0.557,0.495,0.964,1.086,1.266,1.774c0.301,0.688,0.441,1.441,0.441,2.26
			C31.011,27.339,30.759,28.299,30.278,29.193z"/>
	</g>
</g>
<g>
</g>
<g>
</g>
<g>
</g>
<g>
</g>
<g>
</g>
<g>
</g>
<g>
</g>
<g>
</g>
<g>
</g>
<g>
</g>
<g>
</g>
<g>
</g>
<g>
</g>
<g>
</g>
<g>
</g>
</svg>
