<?xml version="1.0" encoding="iso-8859-1"?>
<!-- Generator: Adobe Illustrator 16.0.0, SVG Export Plug-In . SVG Version: 6.00 Build 0)  -->
<!DOCTYPE svg PUBLIC "-//W3C//DTD SVG 1.1//EN" "http://www.w3.org/Graphics/SVG/1.1/DTD/svg11.dtd">
<svg version="1.1" id="Capa_1" xmlns="http://www.w3.org/2000/svg" xmlns:xlink="http://www.w3.org/1999/xlink" x="0px" y="0px"
	 width="441.3px" height="441.3px" viewBox="0 0 441.3 441.3" style="enable-background:new 0 0 441.3 441.3;" xml:space="preserve"
	>
<g>
	<g>
		<path d="M97.4,169.3c0,4.9-1.2,8.6-3.7,11c-2.4,2.4-7.3,3.7-14.1,3.7H64.3v-27.5h15.3c6.7,0,11.6,1.2,14.1,3.1
			C96.2,160.7,97.4,164.4,97.4,169.3z M441.3,59.1v250.3c0,24.5-19.6,44.1-44.1,44.1h-28.8V400c0,14.7-11.602,26.3-26.301,26.3
			H321.9c-14.7,0-26.301-11.6-26.301-26.3v-46.5H145.7V400c0,14.7-11.6,26.3-26.3,26.3H99.2c-14.7,0-26.3-11.6-26.3-26.3v-46.5H44.1
			C19.6,353.5,0,333.9,0,309.4V59.1C0,34.6,19.6,15,44.1,15l0,0h353.1C421.7,15.1,441.3,34.7,441.3,59.1z M123.7,231.101l-23.3-33
			c11.6-4.3,17.7-14.1,17.7-28.8c0-11-3.1-18.4-9.2-23.3s-16.5-7.3-30.6-7.3H43.4v92.399h20.8v-29.399h14.1l20.2,29.399H123.7
			L123.7,231.101z M206.9,212.7h-47.1v-19h41.6V176h-41.6v-19h45.9v-18.3H139V231.1h67.9V212.7L206.9,212.7z M311,138.7h-20.8v59.4
			l-45.3-59.4h-19V231.1H246.1V173l44.101,58.101H311V138.7L311,138.7z M398.5,138.7h-72.8l0,0v17.7H352v74.7h20.2v-74.7h26.3V138.7
			L398.5,138.7z"/>
	</g>
</g>
<g>
</g>
<g>
</g>
<g>
</g>
<g>
</g>
<g>
</g>
<g>
</g>
<g>
</g>
<g>
</g>
<g>
</g>
<g>
</g>
<g>
</g>
<g>
</g>
<g>
</g>
<g>
</g>
<g>
</g>
</svg>
